<?xml version="1.0" encoding="UTF-8" standalone="no"?>
<!-- Generator: Adobe Illustrator 19.0.0, SVG Export Plug-In . SVG Version: 6.00 Build 0)  -->

<svg
   xmlns:dc="http://purl.org/dc/elements/1.1/"
   xmlns:cc="http://creativecommons.org/ns#"
   xmlns:rdf="http://www.w3.org/1999/02/22-rdf-syntax-ns#"
   xmlns:svg="http://www.w3.org/2000/svg"
   xmlns="http://www.w3.org/2000/svg"
   xmlns:xlink="http://www.w3.org/1999/xlink"
   xmlns:sodipodi="http://sodipodi.sourceforge.net/DTD/sodipodi-0.dtd"
   xmlns:inkscape="http://www.inkscape.org/namespaces/inkscape"
   version="1.1"
   id="Capa_1"
   x="0px"
   y="0px"
   viewBox="0 0 52 52"
   style="enable-background:new 0 0 52 52;"
   xml:space="preserve"
   inkscape:version="0.91 r"
   sodipodi:docname="placeholder.svg"><metadata
     id="metadata4250"><rdf:RDF><cc:Work
         rdf:about=""><dc:format>image/svg+xml</dc:format><dc:type
           rdf:resource="http://purl.org/dc/dcmitype/StillImage" /></cc:Work></rdf:RDF></metadata><defs
     id="defs4248"><linearGradient
       inkscape:collect="always"
       id="linearGradient4344"><stop
         style="stop-color:#000000;stop-opacity:1;"
         offset="0"
         id="stop4346" /><stop
         style="stop-color:#000000;stop-opacity:0;"
         offset="1"
         id="stop4348" /></linearGradient><linearGradient
       inkscape:collect="always"
       xlink:href="#linearGradient4344"
       id="linearGradient4350"
       x1="26.227449"
       y1="26.023165"
       x2="36.160931"
       y2="26.130566"
       gradientUnits="userSpaceOnUse" /></defs><sodipodi:namedview
     pagecolor="#ffffff"
     bordercolor="#666666"
     borderopacity="1"
     objecttolerance="10"
     gridtolerance="10"
     guidetolerance="10"
     inkscape:pageopacity="0"
     inkscape:pageshadow="2"
     inkscape:window-width="2560"
     inkscape:window-height="1025"
     id="namedview4246"
     showgrid="false"
     inkscape:zoom="6.4183539"
     inkscape:cx="-86.744979"
     inkscape:cy="31.052338"
     inkscape:window-x="0"
     inkscape:window-y="26"
     inkscape:window-maximized="1"
     inkscape:current-layer="layer4" /><g
     id="g4216" /><g
     id="g4218" /><g
     id="g4220" /><g
     id="g4222" /><g
     id="g4224" /><g
     id="g4226" /><g
     id="g4228" /><g
     id="g4230" /><g
     id="g4232" /><g
     id="g4234" /><g
     id="g4236" /><g
     id="g4238" /><g
     id="g4240" /><g
     id="g4242" /><g
     id="g4244" /><g
     inkscape:groupmode="layer"
     id="layer1"
     inkscape:label="BaseLocation"
     style="display:inline"
     sodipodi:insensitive="true"><path
       style="fill:#e53935;fill-opacity:1"
       d="m 37.054747,4.2179968 0,0 c -6.094204,-4.50572738 -13.728345,-5.8614406 -21.088701,0 l 0,0 C 8.5497521,10.450226 10.128218,22.966534 14.581244,30.325022 L 26.510396,51.67755 38.439548,30.325022 C 42.892573,22.966534 44.561422,10.179082 37.054747,4.2179968 Z M 26.655603,23.207512 c -2.71874,0 5.742663,-8.556073 5.742663,-11.925705 0,-3.3696335 -8.461403,-0.27574 -5.742663,-0.27574 2.718741,0 -4.477331,10.348377 -4.477331,13.71801 0,3.369631 7.196072,-1.516565 4.477331,-1.516565 z"
       id="path4214-6"
       inkscape:connector-curvature="0"
       sodipodi:nodetypes="ccccccccsssss" /></g><g
     inkscape:groupmode="layer"
     id="layer3"
     inkscape:label="icon_health"
     sodipodi:insensitive="true"><ellipse
       style="display:inline;fill:#ffffff;fill-opacity:1;stroke:none;stroke-width:1.6790421;stroke-miterlimit:4;stroke-dasharray:none;stroke-opacity:1"
       id="path4164-0"
       cx="26.654943"
       cy="15.69347"
       rx="14.059925"
       ry="13.763089" /><ellipse
       style="display:inline;fill:#e0e0e0;fill-opacity:1;stroke:none;stroke-width:1.6790421;stroke-miterlimit:4;stroke-dasharray:none;stroke-opacity:1"
       id="path4164-0-9"
       cx="26.752935"
       cy="16.278086"
       rx="14.059925"
       ry="13.763089" /><ellipse
       style="display:inline;fill:#f5f5f5;fill-opacity:1;stroke:none;stroke-width:1.6790421;stroke-miterlimit:4;stroke-dasharray:none;stroke-opacity:1"
       id="path4164"
       cx="26.732313"
       cy="15.994741"
       rx="14.104873"
       ry="13.553601" /><path
       style="display:inline;opacity:1;fill:#e53935;fill-opacity:1;stroke:none;stroke-width:1;stroke-miterlimit:4;stroke-dasharray:none;stroke-opacity:1"
       d="m 30.191884,6.5909109 0,18.5522241 c 0,1.001529 -1.479532,1.807827 -3.317335,1.807827 -1.837801,0 -3.317332,-0.806298 -3.317332,-1.807827 l 0,-18.5522241 c 0,-1.0015248 1.479531,-1.8078106 3.317332,-1.8078106 1.837803,0 3.317335,0.8062858 3.317335,1.8078106 z"
       id="rect3344"
       inkscape:connector-curvature="0"
       sodipodi:nodetypes="sssssss" /><rect
       style="display:inline;opacity:1;fill:#e53935;fill-opacity:1;stroke:none;stroke-width:1;stroke-miterlimit:4;stroke-dasharray:none;stroke-opacity:1"
       id="rect3344-7-7"
       width="23.422928"
       height="6.6178074"
       x="15.053117"
       y="12.377312"
       rx="1.898726"
       ry="3.3089037" /></g><g
     inkscape:groupmode="layer"
     id="layer4"
     inkscape:label="shadow"><path
       style="display:inline;opacity:0.1;fill:url(#linearGradient4350);fill-opacity:1"
       d="M 37.651337,4.6392853 37.10049,4.2536921 C 31.61865,0.09089995 26.631589,0.36830651 26.631589,0.36830651 l 0,1.77791359 c -0.108195,12.7425599 5.97e-4,5.3509841 0.005,10.5201679 0.0051,6.053289 -0.039,7.170457 0.01932,16.58411 L 26.485543,51.68186 38.495918,30.310441 C 43.071829,22.888493 44.483752,10.982288 37.651337,4.6392853 Z M 26.634791,22.966295 c 0.01892,-5.157514 5.901093,-8.629861 5.901093,-12.028553 0,-3.3986924 -6.657078,-7.6120108 -5.901093,-0.278118 0.281232,2.728258 0.04071,7.881871 0.04071,11.280564 0,3.398691 -0.07399,10.095644 -0.04071,1.026107 z"
       id="path4214-6-5"
       inkscape:connector-curvature="0"
       sodipodi:nodetypes="ccccsccccsssss" /></g></svg>